<svg version="1.2" xmlns="http://www.w3.org/2000/svg" viewBox="0 0 1000 1000" width="1000" height="1000">
	<title>4208919-ai</title>
	<defs>
		<linearGradient id="g1" x1="496.5" y1="424.3" x2="406" y2="641.4" gradientUnits="userSpaceOnUse">
			<stop offset="0" stop-color="#a73ea0"/>
			<stop offset="1" stop-color="#7a3a9e"/>
		</linearGradient>
		<linearGradient id="g2" x1="451" y1="346" x2="455.8" y2="378.7" gradientUnits="userSpaceOnUse">
			<stop offset="0" stop-color="#a73ea0"/>
			<stop offset="1" stop-color="#54379b"/>
		</linearGradient>
		<linearGradient id="g3" x1="208.9" y1="606.7" x2="300" y2="405.2" gradientUnits="userSpaceOnUse">
			<stop offset="0" stop-color="#ec8ec4"/>
			<stop offset="1" stop-color="#ec8ec4" stop-opacity="0"/>
		</linearGradient>
		<linearGradient id="g4" x1="443.3" y1="388.9" x2="493.5" y2="370.3" gradientUnits="userSpaceOnUse">
			<stop offset="0" stop-color="#ec8ec4"/>
			<stop offset="1" stop-color="#ec8ec4" stop-opacity="0"/>
		</linearGradient>
		<linearGradient id="g5" x1="409.6" y1="439.1" x2="409.6" y2="402.2" gradientUnits="userSpaceOnUse">
			<stop offset="0" stop-color="#a73ea0"/>
			<stop offset="1" stop-color="#54379b"/>
		</linearGradient>
		<linearGradient id="g6" x1="97.8" y1="544.6" x2="295.7" y2="364.6" gradientUnits="userSpaceOnUse">
			<stop offset="0" stop-color="#ec8ec4"/>
			<stop offset="1" stop-color="#ec8ec4" stop-opacity="0"/>
		</linearGradient>
		<linearGradient id="g7" x1="355" y1="497.6" x2="353.3" y2="600.2" gradientUnits="userSpaceOnUse">
			<stop offset="0" stop-color="#fc6f48"/>
			<stop offset="1" stop-color="#ffa667"/>
		</linearGradient>
		<linearGradient id="g8" x1="297.6" y1="438.5" x2="178" y2="551.7" gradientUnits="userSpaceOnUse">
			<stop offset="0" stop-color="#fc6f48"/>
			<stop offset="1" stop-color="#ffa667"/>
		</linearGradient>
	</defs>
	<style>
		tspan { white-space:pre } 
		.s0 { fill: #ffffff } 
		.s1 { fill: url(#g1) } 
		.s2 { fill: url(#g2) } 
		.s3 { fill: url(#g3) } 
		.s4 { fill: url(#g4) } 
		.s5 { fill: url(#g5) } 
		.s6 { fill: url(#g6) } 
		.s7 { fill: url(#g7) } 
		.s8 { opacity: .3;mix-blend-mode: color-dodge;fill: #ff9948 } 
		.s9 { fill: url(#g8) } 
		.t10 { font-size: 65px;fill: #ff9948;font-weight: 600;font-family: "Barlow-SemiBold", "Barlow" } 
	</style>
	<g id="BACKGROUND">
		<path id="&lt;Path&gt;" class="s0" d="m1000 1000h-1000v-1000h1000z"/>
	</g>
	<g id="OBJECTS">
		<g id="&lt;Group&gt;">
			<g id="&lt;Group&gt;">
				<g id="&lt;Group&gt;">
					<path id="&lt;Path&gt;" class="s1" d="m505 390.9c0 11-16.6 18.7-34.2 17.3l-20.1-1.6-17.7 50.6c-1.7 5-6.4 8.3-11.7 8.4l-7.1 0.1-0.6-60.1c-93.3 21.9-158.3 114.7-163.3 181.9-5.5 73.8 69.7 73.8 69.7 73.8-64.9 60.7-181.5 4.9-104.2-128.6 51.7-89.2 133.1-122.5 178.2-133.7q0.1 0 0.1-0.1c0.8-0.2 1.3-0.9 1.1-1.7-0.2-0.8-0.9-1.3-1.7-1.2h-0.1q0 0-0.1 0.1c-32.1 5.8-63.5 16.2-93.3 30 29.1-15.1 60.1-27.1 92.4-34.5q0.1-0.1 0.1-0.1c0.7-0.1 1.2-0.7 1.1-1.4-0.1-0.8-0.8-1.3-1.5-1.2q-0.1 0-0.2 0c-97.1 14.6-208.9 69.9-243.8 141.7-39.3 81 17.3 137.5 17.3 137.5-54.5-35.3-88.3-142.7 34.5-223.7 88.7-58.4 158.3-63.5 206.2-66.5l7.2 0.1-0.8-63.7 7.1-0.1c5.3 0 10 3.2 11.9 8.2l19.7 52.7 19.6-1.6q2.1-0.2 4.1-0.2c16 0 30.1 7.4 30.1 17.6z"/>
					<path id="&lt;Path&gt;" class="s2" d="m413.3 378l-0.8-63.7 7.1-0.1c5.3 0 10 3.2 11.9 8.2l19.7 52.7c-20.6 0.7-37.9 2.9-37.9 2.9z"/>
					<path id="&lt;Path&gt;" class="s3" d="m320 661.3c-13.4 12.5-28.9 20.1-44.5 23-51.4-29.2-67-75-44.9-127.9 57-136.6 183-150.8 183-150.8-93.3 21.9-158.3 114.7-163.3 181.9-5.5 73.8 69.7 73.8 69.7 73.8z"/>
					<path id="&lt;Path&gt;" class="s4" d="m505 390.9c0 11-16.6 18.7-34.2 17.3l-20.1-1.6c-10.9-0.1-28-0.7-34.5-0.9q-0.2-0.1-0.4-0.1-1-0.1-2.2 0c21.3-1.2 91.1-7 76.8-29.8 8.6 3 14.6 8.4 14.6 15.1z"/>
					<path id="&lt;Path&gt;" class="s5" d="m450.7 406.6l-17.7 50.6c-1.7 5-6.4 8.3-11.7 8.4l-7.1 0.1-0.6-60.1c0 0 23.5 0.9 37.1 1z"/>
					<path id="&lt;Path&gt;" class="s6" d="m164.3 667.4c-17.2-18.1-34.6-42.3-35.1-66.8-1-49 4.7-90 76.6-146.3 71.9-56.3 186.3-65.4 186.3-65.4q-0.1 0-0.2 0c-97.1 14.6-208.9 69.9-243.8 141.7-39.3 81 17.3 137.5 17.3 137.5q-0.5-0.4-1.1-0.7z"/>
				</g>
				<g id="&lt;Group&gt;">
					<path id="&lt;Path&gt;" class="s7" d="m295.1 563.3c-3.3 65.5 53.9 68.4 53.9 68.4-20 26.2-86.3 29.6-84.9-44.2 1.4-73.8 70.2-127 70.2-127 0 0-35.8 37.4-39.2 102.8z"/>
					<path id="&lt;Path&gt;" class="s8" d="m295.1 563.3c-3.3 65.5 53.9 68.4 53.9 68.4-12.4 16.2-42.6 23.7-63.4 9.5-33.7-76 31-159.7 45.8-177.3-8.6 10.5-33.5 45.4-36.3 99.4z"/>
				</g>
				<g id="&lt;Group&gt;">
					<path id="&lt;Path&gt;" class="s9" d="m149.6 455c58.8-68.4 205.6-81.7 205.6-81.7-253.3 50.1-247.9 195.6-247.9 195.6 0 0-12.9-49.7 42.3-113.9z"/>
					<path id="&lt;Path&gt;" class="s8" d="m149.6 455q3.2-3.8 6.8-7.3c28.4-20.2 66.2-39.2 116.1-51.8-169.3 61.3-165.2 173-165.2 173 0 0-12.9-49.7 42.3-113.9z"/>
				</g>
			</g>
			<g id="&lt;Group&gt;">
				<text id="U2Fly" style="transform: matrix(2,0,0,2,625.297,589.533)" >
					<tspan x="-80.5" y="0" class="t10">U</tspan><tspan  y="0" class="t10">2</tspan><tspan  y="0" class="t10">F</tspan><tspan  y="0" class="t10">l</tspan><tspan  y="0" class="t10">y
</tspan>
				</text>
				<text id="" style="transform: matrix(2,0,0,2,625.301,631.838)" >
				</text>
			</g>
		</g>
	</g>
</svg>